# xmcd
#
# Track frame offsets:
#	150
#	12034
#	25532
#	41552
#	51080
#	63697
#	75462
#	84685
#	97407
#	110475
#	124802
#
# Disc length: 1829 seconds
#
# Revision: 1
# Processed by: cddbd v1.5.1PL0 Copyright (c) Steve Scherf et al.
# Submitted via: audiograbber 1.83.01
#
DISCID=8a07230b
DTITLE=Southern Express - Southbound
DYEAR=1900
DGENRE=Country
TTITLE0=Blue Sky Tonight
TTITLE1=Southbound
TTITLE2=Lonesome River
TTITLE3=Waitin' On Lee
TTITLE4=And We'd Sing
TTITLE5=My Last Tear
TTITLE6=One Will Be Taken
TTITLE7=Salt River Canyon
TTITLE8=Girl From The East Side Of Town, The
TTITLE9=New Train
TTITLE10=Homeward Bound
EXTD=
EXTT0=
EXTT1=
EXTT2=
EXTT3=
EXTT4=
EXTT5=
EXTT6=
EXTT7=
EXTT8=
EXTT9=
EXTT10=
PLAYORDER=
